PathFileType	4	(X/Y/Z)	6_coords_data.trc
DataRate	CameraRate	NumFrames	NumMarkers	Units	OrigDataRate	OrigDataStartFrame	OrigNumFrames
30.0	30.0	6	21	m	30.0	1	77
Frame#	Time	THUMB_TIP	THUMB_IP	THUMB_MCP	THUMB_CMC	INDEX_TIP	INDEX_DIP	INDEX_PIP	INDEX_MCP	MIDDLE_TIP	MIDDLE_DIP	MIDDLE_PIP	MIDDLE_MCP	RING_TIP	RING_DIP	RING_PIP	RING_MCP	PINKY_TIP	PINKY_DIP	PINKY_PIP	PINKY_MCP	WRIST
X1	Y1	Z1	X2	Y2	Z2	X3	Y3	Z3	X4	Y4	Z4	X5	Y5	Z5	X6	Y6	Z6	X7	Y7	Z7	X8	Y8	Z8	X9	Y9	Z9	X10	Y10	Z10	X11	Y11	Z11	X12	Y12	Z12	X13	Y13	Z13	X14	Y14	Z14	X15	Y15	Z15	X16	Y16	Z16	X17	Y17	Z17	X18	Y18	Z18	X19	Y19	Z19	X20	Y20	Z20	X21	Y21	Z21
0	0.0	0.008264559745788574	-0.1534600067138672	1.02918994140625	0.015435400009155274	-0.1266230010986328	1.027300048828125	0.007303619861602783	-0.09792839813232422	1.03852001953125	4.6980399638414e-05	-0.05202360153198242	1.0466800537109375	0.0	0.0	0.0	0.022266799926757813	-0.06155849838256836	1.0116799926757813	0.027422800064086914	-0.06497419738769532	0.9868690185546874	-0.013796799659729004	-0.07329820251464844	0.9899829711914062	0.01049650001525879	-0.0491693000793457	1.02647998046875	0.018933799743652342	-0.046878299713134765	1.0154099731445312	0.026020200729370117	-0.04373809814453125	0.9887750244140625	-0.020403400421142578	-0.04962689971923828	0.9840599975585937	0.011206700325012206	-0.03240340042114258	1.027280029296875	0.017247900009155274	-0.03098590087890625	1.0216300048828124	0.02670859909057617	-0.02448509979248047	0.99772998046875	-0.016349199295043946	-0.02372330093383789	0.9882139892578125	0.0	0.0	0.0	0.019271499633789064	-0.014644499778747558	1.0200900268554687	0.023800600051879884	-0.008326700210571289	1.0048699951171876	-0.007539730072021484	-0.0029932000637054442	1.0006300048828125	-0.01508180046081543	-0.02888059997558594	1.063030029296875
1	0.03333333333333333	0.009102709770202637	-0.15421200561523438	1.028199951171875	0.014967499732971191	-0.1259300003051758	1.02656005859375	0.006059100151062011	-0.09555829620361328	1.0376199951171876	-1.1867400258779e-05	-0.05523369979858399	1.04822998046875	0.003256469964981079	-0.06598590087890625	1.018530029296875	0.019812000274658202	-0.06353499984741211	1.01052001953125	0.026156999588012694	-0.06519509887695313	0.9867069702148438	-0.014456399917602539	-0.07287090301513671	0.9894429931640625	0.012288800239562988	-0.050112098693847654	1.0223099975585936	0.018886499404907227	-0.04678789901733398	1.0156300048828124	0.02488629913330078	-0.0438203010559082	0.987219970703125	-0.01968910026550293	-0.04868980026245117	0.98302001953125	0.008368060111999512	-0.034228599548339844	1.026050048828125	0.016816900253295897	-0.030317800521850586	1.0212100219726563	0.025841100692749024	-0.025086700439453127	0.9967849731445313	-0.015989999771118164	-0.024257299423217773	0.9878099975585938	0.004111760139465332	-0.015690799713134765	1.0281800537109376	0.01809440040588379	-0.014236900329589844	1.0213599853515625	0.023242799758911133	-0.00837442970275879	1.0036400146484374	-0.007806509971618652	-0.003329950094223022	0.9990789794921875	-0.02042460060119629	-0.02812809944152832	1.066050048828125
2	0.06666666666666667	0.00897422981262207	-0.15419200134277344	1.02797998046875	0.014869999885559083	-0.1259029998779297	1.0264599609375	0.005997330188751221	-0.09559259796142579	1.037530029296875	-0.000146108999848365	-0.05525299835205078	1.048199951171875	0.00323895001411438	-0.06610099792480469	1.0182100219726562	0.019685300827026367	-0.0635364990234375	1.0104400024414062	0.02613960075378418	-0.06521579742431641	0.9864340209960938	-0.01442870044708252	-0.07289469909667969	0.9893889770507812	0.012131999969482422	-0.050090801239013674	1.0219500122070313	0.018816999435424805	-0.04676860046386719	1.0155900268554687	0.024825599670410155	-0.043883098602294925	0.9869970092773438	-0.019697200775146483	-0.048720699310302734	0.9829450073242187	0.008152469635009766	-0.03408169937133789	1.0266500244140624	0.016660499572753906	-0.03027239990234375	1.0210599975585937	0.025817499160766602	-0.025069799423217774	0.9966719970703125	-0.016079900741577148	-0.02428809928894043	0.9877540283203124	0.0039411399364471435	-0.015719300270080568	1.02825	0.01797330093383789	-0.014182499885559082	1.0211900024414062	0.02314509963989258	-0.008343990325927735	1.0035399780273437	-0.007901509761810303	-0.0033597900867462158	0.99893798828125	-0.02051650047302246	-0.028182699203491212	1.06597998046875
3	0.1	0.008676679611206054	-0.15411599731445313	1.0276300048828124	0.014644200325012208	-0.125822998046875	1.026199951171875	0.00590054988861084	-0.09548699951171875	1.0374000244140624	-0.000270613014698028	-0.05519480133056641	1.048219970703125	0.003071369886398315	-0.06580760192871093	1.01852001953125	0.01969980049133301	-0.06349639892578125	1.01052001953125	0.02602120018005371	-0.06527290344238282	0.9863079833984375	-0.014536499977111816	-0.07285700225830079	0.9892919921875	0.012171799659729005	-0.05008459854125977	1.0221799926757813	0.018941200256347657	-0.04675699996948242	1.0153400268554686	0.02469420051574707	-0.04385070037841797	0.9868049926757813	-0.01980229949951172	-0.04867670059204102	0.9828790283203125	0.008236240386962891	-0.034036399841308594	1.0269100341796875	0.01661989974975586	-0.030239599227905273	1.020969970703125	0.025741399765014647	-0.02507029914855957	0.996552001953125	-0.01611050033569336	-0.024258100509643554	0.98764599609375	0.004044000148773193	-0.015774399757385253	1.028219970703125	0.018054800033569338	-0.014204400062561035	1.0210399780273438	0.02316600036621094	-0.008306659698486329	1.003719970703125	-0.007935349941253661	-0.003332509994506836	0.9988259887695312	-0.020532400131225585	-0.028101200103759764	1.0659000244140624
4	0.13333333333333333	0.008238140106201173	-0.15389700317382812	1.027199951171875	0.014347900390625	-0.1255970001220703	1.0258599853515624	0.005727159976959229	-0.09537039947509765	1.037239990234375	-0.000172377005219459	-0.05501599884033203	1.0480400390625	0.003134429931640625	-0.065847900390625	1.0181799926757813	0.019552099227905274	-0.06333160018920898	1.0102899780273438	0.02595400047302246	-0.06508540344238281	0.9862169799804688	-0.014649100303649902	-0.07268000030517578	0.9891309814453125	0.012274100303649902	-0.04992910003662109	1.0218499755859376	0.018764999389648436	-0.0466427993774414	1.0153300170898438	0.024626199722290038	-0.04371139907836914	0.9867109985351562	-0.01992569923400879	-0.048506500244140625	0.9827009887695313	0.00813617992401123	-0.03394110107421875	1.0259100341796874	0.016527399063110352	-0.03008970069885254	1.0207899780273437	0.02569099998474121	-0.024934099197387694	0.9962269897460938	-0.01621269989013672	-0.024110000610351564	0.9874550170898437	0.00388319993019104	-0.01547920036315918	1.027949951171875	0.018020299911499022	-0.014027400016784668	1.020969970703125	0.022988500595092772	-0.008205249786376953	1.0033200073242188	-0.008101519584655761	-0.003133320093154907	0.9987360229492187	-0.02057819938659668	-0.02792340087890625	1.065949951171875
5	0.16666666666666666	0.008374799728393554	-0.1537760009765625	1.027260009765625	0.014472999572753907	-0.12552799987792967	1.0259100341796874	0.005813089847564698	-0.09526319885253906	1.03727001953125	-7.9409398138523e-05	-0.05497169876098633	1.0481099853515625	0.0033187201023101797	-0.06580680084228516	1.0179500122070313	0.019839300155639648	-0.06318259811401367	1.0103499755859375	0.026209499359130858	-0.06491799926757813	0.9865609741210938	-0.014510100364685058	-0.07259120178222657	0.9892670288085937	0.012154600143432618	-0.049758201599121095	1.0218400268554688	0.01880730056762695	-0.046446399688720705	1.0152100219726563	0.024759199142456053	-0.04357389831542969	0.9867789916992188	-0.01982979965209961	-0.04844800186157226	0.9827979736328125	0.008522919654846191	-0.03369699859619141	1.02577001953125	0.016614500045776366	-0.02996310043334961	1.0208400268554687	0.025743999481201173	-0.024772199630737304	0.99614697265625	-0.016164899826049805	-0.024055099487304686	0.9874959716796875	0.0038324999809265133	-0.01539080047607422	1.02802001953125	0.01801689910888672	-0.013884599685668946	1.02102001953125	0.02301169967651367	-0.0080523099899292	1.0033200073242188	-0.008018980026245117	-0.0031028699874877928	0.99864501953125	-0.020566499710083008	-0.027819299697875978	1.0658800048828125
